<svg viewBox="0 0 1200 1474" xmlns="http://www.w3.org/2000/svg"><rect width="1200" height="1474" fill="#0A0A0C"/><text x="70" y="64" font-family="DejaVu Sans" font-size="15" font-weight="bold" letter-spacing="2" fill="#0A84FF">DATA SCIENCE PORTFOLIO · MARKETS</text><text x="66" y="126" font-family="DejaVu Sans" font-size="58" font-weight="bold" letter-spacing="-1" fill="#F5F5F7">BIG TECH PULSE</text><text x="70" y="168" font-family="DejaVu Sans" font-size="19" fill="#9A9AA0"><tspan x="70" dy="0">The Magnificent 7 under the microscope: SQL, Python and Machine Learning</tspan><tspan x="70" dy="25.650000000000002">applied to the world's seven most valuable companies.</tspan></text><rect x="70.0" y="249.3" width="254.5" height="52" rx="10" fill="#18181B" stroke="#2C2C30"/><text x="84.0" y="270.3" font-family="DejaVu Sans" font-size="12.5" font-weight="bold" fill="#F5F5F7"><tspan x="84.0" dy="0">17 companies analyzed</tspan></text><rect x="338.5" y="249.3" width="254.5" height="52" rx="10" fill="#18181B" stroke="#2C2C30"/><text x="352.5" y="270.3" font-family="DejaVu Sans" font-size="12.5" font-weight="bold" fill="#F5F5F7"><tspan x="352.5" dy="0">$22.4T combined market</tspan><tspan x="352.5" dy="16.875">cap</tspan></text><rect x="607.0" y="249.3" width="254.5" height="52" rx="10" fill="#18181B" stroke="#2C2C30"/><text x="621.0" y="270.3" font-family="DejaVu Sans" font-size="12.5" font-weight="bold" fill="#F5F5F7"><tspan x="621.0" dy="0">$709B 2026 AI capex</tspan></text><rect x="875.5" y="249.3" width="254.5" height="52" rx="10" fill="#18181B" stroke="#2C2C30"/><text x="889.5" y="270.3" font-family="DejaVu Sans" font-size="12.5" font-weight="bold" fill="#F5F5F7"><tspan x="889.5" dy="0">Snapshot: Aug 1, 2026</tspan></text><text x="70" y="347.3" font-family="DejaVu Sans" font-size="16" font-weight="bold" letter-spacing="1.5" fill="#0A84FF">BIG TECH SCORECARD — 2026 DIAGNOSIS</text><rect x="70" y="373.3" width="1060" height="34" fill="#18181B"/><text x="80" y="395.3" font-family="DejaVu Sans Mono" font-size="11.5" font-weight="bold" letter-spacing="0.5" fill="#9A9AA0">#</text><text x="120" y="395.3" font-family="DejaVu Sans Mono" font-size="11.5" font-weight="bold" letter-spacing="0.5" fill="#9A9AA0">COMPANY</text><text x="380" y="395.3" font-family="DejaVu Sans Mono" font-size="11.5" font-weight="bold" letter-spacing="0.5" fill="#9A9AA0">MARKET CAP</text><text x="600" y="395.3" font-family="DejaVu Sans Mono" font-size="11.5" font-weight="bold" letter-spacing="0.5" fill="#9A9AA0">YTD</text><text x="730" y="395.3" font-family="DejaVu Sans Mono" font-size="11.5" font-weight="bold" letter-spacing="0.5" fill="#9A9AA0">MOMENTUM</text><text x="900" y="395.3" font-family="DejaVu Sans Mono" font-size="11.5" font-weight="bold" letter-spacing="0.5" fill="#9A9AA0">STATUS</text><rect x="70" y="407.3" width="1060" height="50" fill="#18181B"/><text x="80" y="438.3" font-family="DejaVu Sans Mono" font-size="14" fill="#6E6E73">1</text><text x="120" y="438.3" font-family="DejaVu Sans" font-size="15" font-weight="bold" fill="#F5F5F7">Apple Inc.</text><text x="380" y="438.3" font-family="DejaVu Sans Mono" font-size="14" fill="#9A9AA0">$4.45T</text><text x="600" y="438.3" font-family="DejaVu Sans Mono" font-size="14" font-weight="bold" fill="#30D158">+23.9%</text><text x="730" y="438.3" font-family="DejaVu Sans Mono" font-size="14" fill="#F5F5F7">83</text><circle cx="912" cy="432.3" r="7" fill="#30D158"/><rect x="70" y="457.3" width="1060" height="50" fill="#0A0A0C"/><text x="80" y="488.3" font-family="DejaVu Sans Mono" font-size="14" fill="#6E6E73">2</text><text x="120" y="488.3" font-family="DejaVu Sans" font-size="15" font-weight="bold" fill="#F5F5F7">Alphabet Inc.</text><text x="380" y="488.3" font-family="DejaVu Sans Mono" font-size="14" fill="#9A9AA0">$4.27T</text><text x="600" y="488.3" font-family="DejaVu Sans Mono" font-size="14" font-weight="bold" fill="#30D158">+4.3%</text><text x="730" y="488.3" font-family="DejaVu Sans Mono" font-size="14" fill="#F5F5F7">64</text><circle cx="912" cy="482.3" r="7" fill="#FF9F0A"/><rect x="70" y="507.3" width="1060" height="50" fill="#18181B"/><text x="80" y="538.3" font-family="DejaVu Sans Mono" font-size="14" fill="#6E6E73">3</text><text x="120" y="538.3" font-family="DejaVu Sans" font-size="15" font-weight="bold" fill="#F5F5F7">NVIDIA Corporation</text><text x="380" y="538.3" font-family="DejaVu Sans Mono" font-size="14" fill="#9A9AA0">$4.79T</text><text x="600" y="538.3" font-family="DejaVu Sans Mono" font-size="14" font-weight="bold" fill="#30D158">+5.4%</text><text x="730" y="538.3" font-family="DejaVu Sans Mono" font-size="14" fill="#F5F5F7">64</text><circle cx="912" cy="532.3" r="7" fill="#FF9F0A"/><rect x="70" y="557.3" width="1060" height="50" fill="#0A0A0C"/><text x="80" y="588.3" font-family="DejaVu Sans Mono" font-size="14" fill="#6E6E73">4</text><text x="120" y="588.3" font-family="DejaVu Sans" font-size="15" font-weight="bold" fill="#F5F5F7">Amazon.com, Inc.</text><text x="380" y="588.3" font-family="DejaVu Sans Mono" font-size="14" fill="#9A9AA0">$2.92T</text><text x="600" y="588.3" font-family="DejaVu Sans Mono" font-size="14" font-weight="bold" fill="#30D158">+0.2%</text><text x="730" y="588.3" font-family="DejaVu Sans Mono" font-size="14" fill="#F5F5F7">54</text><circle cx="912" cy="582.3" r="7" fill="#FF9F0A"/><rect x="70" y="607.3" width="1060" height="50" fill="#18181B"/><text x="80" y="638.3" font-family="DejaVu Sans Mono" font-size="14" fill="#6E6E73">5</text><text x="120" y="638.3" font-family="DejaVu Sans" font-size="15" font-weight="bold" fill="#F5F5F7">Microsoft Corporation</text><text x="380" y="638.3" font-family="DejaVu Sans Mono" font-size="14" fill="#9A9AA0">$3.35T</text><text x="600" y="638.3" font-family="DejaVu Sans Mono" font-size="14" font-weight="bold" fill="#FF453A">-10.0%</text><text x="730" y="638.3" font-family="DejaVu Sans Mono" font-size="14" fill="#F5F5F7">41</text><circle cx="912" cy="632.3" r="7" fill="#FF9F0A"/><rect x="70" y="657.3" width="1060" height="50" fill="#0A0A0C"/><text x="80" y="688.3" font-family="DejaVu Sans Mono" font-size="14" fill="#6E6E73">6</text><text x="120" y="688.3" font-family="DejaVu Sans" font-size="15" font-weight="bold" fill="#F5F5F7">Tesla, Inc.</text><text x="380" y="688.3" font-family="DejaVu Sans Mono" font-size="14" fill="#9A9AA0">$1.22T</text><text x="600" y="688.3" font-family="DejaVu Sans Mono" font-size="14" font-weight="bold" fill="#FF453A">-31.2%</text><text x="730" y="688.3" font-family="DejaVu Sans Mono" font-size="14" fill="#F5F5F7">18</text><circle cx="912" cy="682.3" r="7" fill="#FF453A"/><rect x="70" y="707.3" width="1060" height="50" fill="#18181B"/><text x="80" y="738.3" font-family="DejaVu Sans Mono" font-size="14" fill="#6E6E73">7</text><text x="120" y="738.3" font-family="DejaVu Sans" font-size="15" font-weight="bold" fill="#F5F5F7">Meta Platforms, Inc.</text><text x="380" y="738.3" font-family="DejaVu Sans Mono" font-size="14" fill="#9A9AA0">$1.40T</text><text x="600" y="738.3" font-family="DejaVu Sans Mono" font-size="14" font-weight="bold" fill="#FF453A">-19.5%</text><text x="730" y="738.3" font-family="DejaVu Sans Mono" font-size="14" fill="#F5F5F7">17</text><circle cx="912" cy="732.3" r="7" fill="#FF453A"/><rect x="70" y="797.3" width="1060" height="200" rx="16" fill="#1F1F23" stroke="#0A84FF" stroke-width="1.5"/><text x="102" y="839.3" font-family="DejaVu Sans" font-size="14" font-weight="bold" letter-spacing="1.5" fill="#0A84FF">THE CORE FINDING</text><text x="102" y="905.3" font-family="DejaVu Sans Mono" font-size="56" font-weight="bold" fill="#F5F5F7">r = −0.94</text><text x="102" y="935.3" font-family="DejaVu Sans" font-size="15" fill="#9A9AA0">Correlation between AI spend (% of market cap) and YTD return</text><text x="102" y="965.3" font-family="DejaVu Sans" font-size="15.5" fill="#9A9AA0"><tspan x="102" dy="0">Apple spends the least on AI (0.3% of its value) and is the only one with a strong gain</tspan><tspan x="102" dy="20.925">(+23.9%). Meta spends the most (8.9%) and has the worst year (−19.5%).</tspan></text><rect x="70.0" y="1041.3" width="4" height="22" fill="#0A84FF"/><text x="84.0" y="1058.3" font-family="DejaVu Sans" font-size="13" font-weight="bold" letter-spacing="0.5" fill="#F5F5F7">METHODOLOGY</text><circle cx="73.0" cy="1083.3" r="2.5" fill="#0A84FF"/><text x="84.0" y="1087.3" font-family="DejaVu Sans" font-size="12.5" fill="#9A9AA0"><tspan x="70.0" dy="0">Cross-checked across 8+</tspan><tspan x="70.0" dy="16.875">sources</tspan></text><circle cx="73.0" cy="1129.05" r="2.5" fill="#0A84FF"/><text x="84.0" y="1133.05" font-family="DejaVu Sans" font-size="12.5" fill="#9A9AA0"><tspan x="70.0" dy="0">Cleaning and feature</tspan><tspan x="70.0" dy="16.875">engineering</tspan></text><circle cx="73.0" cy="1174.8" r="2.5" fill="#0A84FF"/><text x="84.0" y="1178.8" font-family="DejaVu Sans" font-size="12.5" fill="#9A9AA0"><tspan x="70.0" dy="0">SQL: schema + 6 EDA</tspan><tspan x="70.0" dy="16.875">queries</tspan></text><circle cx="73.0" cy="1220.55" r="2.5" fill="#0A84FF"/><text x="84.0" y="1224.55" font-family="DejaVu Sans" font-size="12.5" fill="#9A9AA0"><tspan x="70.0" dy="0">Machine Learning: KMeans,</tspan><tspan x="70.0" dy="16.875">PCA</tspan></text><rect x="340.0" y="1041.3" width="4" height="22" fill="#30D158"/><text x="354.0" y="1058.3" font-family="DejaVu Sans" font-size="13" font-weight="bold" letter-spacing="0.5" fill="#F5F5F7">GLOBAL LANDSCAPE</text><circle cx="343.0" cy="1083.3" r="2.5" fill="#30D158"/><text x="354.0" y="1087.3" font-family="DejaVu Sans" font-size="12.5" fill="#9A9AA0"><tspan x="340.0" dy="0">17 companies · 4 countries</tspan></text><circle cx="343.0" cy="1112.175" r="2.5" fill="#30D158"/><text x="354.0" y="1116.175" font-family="DejaVu Sans" font-size="12.5" fill="#9A9AA0"><tspan x="340.0" dy="0">10 tech sectors</tspan></text><circle cx="343.0" cy="1141.05" r="2.5" fill="#30D158"/><text x="354.0" y="1145.05" font-family="DejaVu Sans" font-size="12.5" fill="#9A9AA0"><tspan x="340.0" dy="0">Not just a U.S. story</tspan></text><circle cx="343.0" cy="1169.925" r="2.5" fill="#30D158"/><text x="354.0" y="1173.925" font-family="DejaVu Sans" font-size="12.5" fill="#9A9AA0"><tspan x="340.0" dy="0">Broadcom, TSMC, Samsung,</tspan><tspan x="340.0" dy="16.875">ASML...</tspan></text><rect x="610.0" y="1041.3" width="4" height="22" fill="#FF9F0A"/><text x="624.0" y="1058.3" font-family="DejaVu Sans" font-size="13" font-weight="bold" letter-spacing="0.5" fill="#F5F5F7">WHAT THIS PROJECT SHOWS</text><circle cx="613.0" cy="1083.3" r="2.5" fill="#FF9F0A"/><text x="624.0" y="1087.3" font-family="DejaVu Sans" font-size="12.5" fill="#9A9AA0"><tspan x="610.0" dy="0">Real SQL with aggregations</tspan><tspan x="610.0" dy="16.875">and rankings</tspan></text><circle cx="613.0" cy="1129.05" r="2.5" fill="#FF9F0A"/><text x="624.0" y="1133.05" font-family="DejaVu Sans" font-size="12.5" fill="#9A9AA0"><tspan x="610.0" dy="0">Correlation validated with</tspan><tspan x="610.0" dy="16.875">SciPy (p&lt;0.05)</tspan></text><circle cx="613.0" cy="1174.8" r="2.5" fill="#FF9F0A"/><text x="624.0" y="1178.8" font-family="DejaVu Sans" font-size="12.5" fill="#9A9AA0"><tspan x="610.0" dy="0">Real interactive cross-</tspan><tspan x="610.0" dy="16.875">filtering</tspan></text><circle cx="613.0" cy="1220.55" r="2.5" fill="#FF9F0A"/><text x="624.0" y="1224.55" font-family="DejaVu Sans" font-size="12.5" fill="#9A9AA0"><tspan x="610.0" dy="0">Apple-style minimalist</tspan><tspan x="610.0" dy="16.875">design</tspan></text><rect x="880.0" y="1041.3" width="4" height="22" fill="#0A84FF"/><text x="894.0" y="1058.3" font-family="DejaVu Sans" font-size="13" font-weight="bold" letter-spacing="0.5" fill="#F5F5F7">INTERACTIVE DEMO</text><text x="880.0" y="1095.3" font-family="DejaVu Sans" font-size="14" font-weight="bold" fill="#F5F5F7">Explore the live cross-filtering</text><rect x="880.0" y="1113.3" width="240.0" height="44" rx="10" fill="#0A84FF"/><text x="1000.0" y="1140.3" font-family="DejaVu Sans Mono" font-size="12" fill="#fff" text-anchor="middle">link in the post · ES / EN</text><line x1="70" y1="1310.3" x2="1130" y2="1310.3" stroke="#2C2C30" stroke-width="1"/><text x="600.0" y="1350.3" font-family="DejaVu Sans" font-size="20" font-weight="bold" fill="#F5F5F7" text-anchor="middle"><tspan x="600.0" dy="0" text-anchor="middle">THE DATA DOESN'T LIE — BUT YOU HAVE TO KNOW</tspan><tspan x="600.0" dy="27.0" text-anchor="middle">HOW TO ASK IT.</tspan></text><text x="600.0" y="1424.3" font-family="DejaVu Sans Mono" font-size="12" fill="#6E6E73" text-anchor="middle">Snapshot from Jul 28 – Aug 1, 2026 · not a live feed</text></svg>